<svg width="100" height="16" fill="none" xmlns="http://www.w3.org/2000/svg"><path fill-rule="evenodd" clip-rule="evenodd" d="M19.054 12.345c.157.122.358.184 1.074.184h2.973c.716.02.917-.062 1.074-.184.201-.185.492-.696.492-4.32 0-3.644-.291-4.156-.492-4.32-.157-.143-.358-.206-1.074-.206h-2.973c-.716 0-.917.063-1.074.206-.2.164-.49.676-.49 4.32 0 3.643.29 4.135.49 4.32ZM24.04.859c1.544 0 2.26.206 2.818.697.895.756 1.544 2.067 1.544 6.469 0 4.381-.65 5.69-1.544 6.47-.558.49-1.274.696-2.818.696h-4.852c-1.543 0-2.258-.206-2.817-.697-.894-.778-1.542-2.088-1.542-6.47 0-4.4.648-5.712 1.542-6.468.56-.491 1.274-.697 2.817-.697h4.852Zm-14.494 0L4.806 6.57h-.961V.86H.2V15.19h3.645V9.11H4.85l4.695 6.08h4.294L7.78 7.594 13.592.86H9.546Zm31.941 9.028V7.212l3.489 6.043v1.935h-2.952c-.827 0-1.207-.204-1.61-.859l-5.389-8.845h-.223v9.704h-3.488V.859h3.421c.85 0 1.207.184 1.61.86l4.919 8.168h.223Zm3.138-1.05V6.162h.224l4.92 8.167c.401.677.76.861 1.608.861h3.421V.86h-3.487v9.703h-.224L45.7 1.718c-.403-.655-.783-.859-1.61-.859h-2.953v1.936l3.49 6.042Zm13.269 6.353h11.739v-2.64h-8.095V9.09h6.306V6.57h-6.306V3.5h8.095V.859h-11.74V15.19Zm25.831-.696c-.559.492-1.252.696-2.817.696h-4.785c-1.544 0-2.258-.204-2.818-.696-.894-.778-1.542-2.089-1.542-6.469 0-4.403.648-5.712 1.542-6.47.56-.49 1.274-.696 2.818-.696h4.785c1.565 0 2.258.205 2.817.697.827.716 1.208 1.8 1.253 4.484H81.49c-.068-1.782-.269-2.17-.448-2.335-.157-.143-.358-.205-1.073-.205h-2.907c-.716 0-.917.062-1.074.205-.2.164-.49.675-.49 4.32 0 3.643.29 4.136.49 4.32.157.123.358.184 1.074.184h2.907c.715.02.916-.061 1.073-.184.18-.165.38-.513.448-2.499H85c-.09 2.887-.448 3.931-1.275 4.648Zm11.118.697V3.52h4.808V.86H86.436V3.52h4.762v11.67h3.645Z" fill="#0A2B66"/></svg>