<svg width="20" height="20" fill="none" xmlns="http://www.w3.org/2000/svg"><g clip-path="url(#a)"><circle cx="10" cy="10" r="10" fill="#A3B6D9"/><path d="M9.073 12.151c0-.638.078-1.146.232-1.524.155-.378.438-.75.848-1.114.415-.37.69-.668.827-.896.137-.232.205-.476.205-.731 0-.77-.355-1.155-1.066-1.155-.337 0-.608.104-.814.314-.2.205-.305.49-.314.854H7.009c.009-.87.289-1.551.84-2.043.556-.493 1.313-.739 2.27-.739.966 0 1.716.235 2.249.704.533.465.8 1.124.8 1.976 0 .387-.087.754-.26 1.1-.173.342-.476.723-.91 1.142l-.553.527a1.875 1.875 0 0 0-.595 1.168l-.027.417h-1.75Zm-.198 2.1c0-.306.102-.557.307-.753.21-.2.477-.3.8-.3.324 0 .588.1.793.3.21.196.315.447.315.752 0 .3-.103.55-.308.745-.2.196-.467.294-.8.294-.332 0-.601-.098-.806-.294a.998.998 0 0 1-.301-.745Z" fill="#fff"/></g><defs><clipPath id="a"><path fill="#fff" d="M0 0h20v20H0z"/></clipPath></defs></svg>