<svg width="20" height="20" fill="none" xmlns="http://www.w3.org/2000/svg"><path fill="#fff" d="M0 0h20v20H0z"/><path fill-rule="evenodd" clip-rule="evenodd" d="M15.492 12.25v-3c0-4.5-.93-5.213-3.453-6.244A2.606 2.606 0 0 0 9.492 1a2.644 2.644 0 0 0-2.55 2.006c-2.521 1.03-3.45 1.845-3.45 6.244v3C3.492 13.284 2 13.355 2 14.5v.75h15.001v-.75c0-1.103-1.51-1.216-1.51-2.25ZM11.742 16h-4.5a.375.375 0 0 0-.375.375A2.628 2.628 0 0 0 9.492 19a2.628 2.628 0 0 0 2.625-2.625.375.375 0 0 0-.375-.375Z" fill="#A3B6D9"/></svg>